HIERARCHY
ROOT Hips
{
	OFFSET -0.001795 -0.223333 0.028219
	CHANNELS 6 Xposition Yposition Zposition Zrotation Yrotation Xrotation 
	JOINT LeftUpLeg
	{
		OFFSET 0.069520 -0.091406 -0.006815
		CHANNELS 3 Zrotation Yrotation Xrotation
		JOINT LeftLeg
		{
			OFFSET 0.034277 -0.375199 -0.004496
			CHANNELS 3 Zrotation Yrotation Xrotation
			JOINT LeftFoot
			{
				OFFSET -0.013596 -0.397961 -0.043693
				CHANNELS 3 Zrotation Yrotation Xrotation
				JOINT LeftToe
				{
					OFFSET 0.026358 -0.055791 0.119288
					CHANNELS 3 Zrotation Yrotation Xrotation
					End Site
					{
						OFFSET 0.000000 0.000000 0.000000
					}
				}
			}
		}
	}
	JOINT RightUpLeg
	{
		OFFSET -0.067670 -0.090522 -0.004320
		CHANNELS 3 Zrotation Yrotation Xrotation
		JOINT RightLeg
		{
			OFFSET -0.038290 -0.382569 -0.008850
			CHANNELS 3 Zrotation Yrotation Xrotation
			JOINT RightFoot
			{
				OFFSET 0.015774 -0.398415 -0.042312
				CHANNELS 3 Zrotation Yrotation Xrotation
				JOINT RightToe
				{
					OFFSET -0.025372 -0.048144 0.123348
					CHANNELS 3 Zrotation Yrotation Xrotation
					End Site
					{
						OFFSET 0.000000 0.000000 0.000000
					}
				}
			}
		}
	}
	JOINT Spine
	{
		OFFSET -0.002533 0.108963 -0.026696
		CHANNELS 3 Zrotation Yrotation Xrotation
		JOINT Spine1
		{
			OFFSET 0.005487 0.135180 0.001092
			CHANNELS 3 Zrotation Yrotation Xrotation
			JOINT Spine2
			{
				OFFSET 0.001457 0.052922 0.025425
				CHANNELS 3 Zrotation Yrotation Xrotation
				JOINT Neck
				{
					OFFSET -0.002778 0.213870 -0.042857
					CHANNELS 3 Zrotation Yrotation Xrotation
					JOINT Head
					{
						OFFSET 0.005152 0.064970 0.051349
						CHANNELS 3 Zrotation Yrotation Xrotation
						End Site
						{
							OFFSET 0.000000 0.000000 0.000000
						}
					}
				}
				JOINT LeftShoulder
				{
					OFFSET 0.078845 0.121749 -0.034090
					CHANNELS 3 Zrotation Yrotation Xrotation
					JOINT LeftArm
					{
						OFFSET 0.090977 0.030469 -0.008868
						CHANNELS 3 Zrotation Yrotation Xrotation
						JOINT LeftForeArm
						{
							OFFSET 0.259612 -0.012772 -0.027456
							CHANNELS 3 Zrotation Yrotation Xrotation
							JOINT LeftHand
							{
								OFFSET 0.249234 0.008986 -0.001171
								CHANNELS 3 Zrotation Yrotation Xrotation
								End Site
								{
									OFFSET 0.000000 0.000000 0.000000
								}
							}
						}
					}
				}
				JOINT RightShoulder
				{
					OFFSET -0.081759 0.118833 -0.038615
					CHANNELS 3 Zrotation Yrotation Xrotation
					JOINT RightArm
					{
						OFFSET -0.096012 0.032551 -0.009143
						CHANNELS 3 Zrotation Yrotation Xrotation
						JOINT RightForeArm
						{
							OFFSET -0.253742 -0.013329 -0.021401
							CHANNELS 3 Zrotation Yrotation Xrotation
							JOINT RightHand
							{
								OFFSET -0.255298 0.007772 -0.005559
								CHANNELS 3 Zrotation Yrotation Xrotation
								End Site
								{
									OFFSET 0.000000 0.000000 0.000000
								}
							}
						}
					}
				}
			}
		}
	}
}
MOTION
Frames: 12
Frame Time: 0.050000
0.000000 0.958199 0.000000 -0.788421 -1.123132 -2.687810 -3.015433 0.688016 5.677878 1.048549 -0.092131 -0.613386 -0.000532 2.259688 5.398742 0.000000 0.000000 0.000000 2.083355 -0.642175 5.177988 0.534320 0.014477 1.996061 -1.336867 -5.204640 4.393256 0.000000 0.000000 0.000000 0.805523 -0.304692 6.489916 -0.830951 0.365952 2.457282 0.216942 0.176414 2.617662 1.577634 -0.452545 -8.847014 0.000000 0.000000 0.000000 -26.118571 0.189066 -2.686803 -44.845143 -5.330150 -3.307283 -9.197192 -21.913368 2.586377 0.000000 0.000000 0.000000 23.908301 -0.190175 -2.635092 49.963690 4.551110 -2.813164 6.423797 21.632859 1.770112 0.000000 0.000000 0.000000 
0.000388 0.958250 0.001076 -0.804792 -0.710976 -2.696622 -2.835322 0.748696 6.293216 1.506677 -0.089691 -1.680776 -0.008468 1.999075 4.703197 0.000000 0.000000 0.000000 2.011542 -0.632942 5.123171 0.790907 -0.030334 1.629466 -1.776217 -5.552240 2.661105 0.000000 0.000000 0.000000 0.622989 -0.310666 6.812830 -0.677524 0.277188 2.841643 -0.015690 -0.215754 1.509910 0.997619 0.022630 -9.792214 0.000000 0.000000 0.000000 -25.169493 0.865059 -2.989403 -45.966030 -4.906430 -3.453341 -9.149588 -22.392835 2.631647 0.000000 0.000000 0.000000 23.313296 0.143787 -2.448538 51.203341 3.368076 -3.260657 6.411889 23.954894 1.960710 0.000000 0.000000 0.000000 
0.000586 0.958128 0.002006 -0.705380 -0.847334 -2.559946 -2.928855 0.692417 5.758549 1.643372 -0.157537 -0.565377 -0.208947 1.109161 3.496177 0.000000 0.000000 0.000000 2.204710 -0.630668 5.000514 0.653699 -0.021819 1.385852 -2.451788 -7.122350 2.632415 0.000000 0.000000 0.000000 0.717730 -0.336570 7.261917 -0.824389 0.382716 1.046754 0.268831 -0.209753 2.601624 0.636822 0.229077 -9.548848 0.000000 0.000000 0.000000 -24.968285 0.321326 -2.548318 -45.379459 -4.719369 -3.588321 -9.614093 -21.881981 2.674024 0.000000 0.000000 0.000000 23.486959 0.649907 -2.178047 50.255552 3.220559 -3.349206 5.748518 24.454982 1.881355 0.000000 0.000000 0.000000 
0.000580 0.958993 0.003023 -0.567023 -0.757202 -2.968186 -3.236620 0.805131 6.579263 2.065759 -0.188022 -0.854711 -0.227337 0.911752 3.105871 0.000000 0.000000 0.000000 2.116831 -0.666148 5.371134 0.899772 -0.030124 2.041813 -2.777675 -7.686596 2.026452 0.000000 0.000000 0.000000 0.321868 -0.361492 8.443564 -0.909800 0.415012 1.739457 0.858391 -0.755195 1.301147 0.445698 0.334948 -9.746196 0.000000 0.000000 0.000000 -25.580542 1.267430 -3.030474 -44.650274 -4.768677 -3.473710 -10.158507 -22.121560 2.824490 0.000000 0.000000 0.000000 23.143023 1.020560 -2.174506 49.630526 3.365630 -3.077222 6.044705 24.482528 1.889654 0.000000 0.000000 0.000000 
0.000492 0.959735 0.004194 -0.349505 -0.688766 -2.834669 -3.393429 0.752946 6.067251 1.921938 -0.195963 -0.397268 -0.045750 1.372000 3.337023 0.000000 0.000000 0.000000 2.023721 -0.638413 5.177463 0.788572 -0.005234 2.377370 -2.928463 -7.970182 1.804094 0.000000 0.000000 0.000000 0.316195 -0.384902 9.003248 -0.845465 0.380622 1.829884 0.714283 -0.555015 0.941033 0.068120 0.597953 -9.587726 0.000000 0.000000 0.000000 -25.925790 0.891442 -2.941603 -43.755988 -4.909965 -3.303339 -10.017667 -22.110772 2.779480 0.000000 0.000000 0.000000 22.701790 1.021712 -2.054899 49.623035 3.586829 -2.976765 5.728737 24.307077 1.822318 0.000000 0.000000 0.000000 
0.000196 0.960395 0.006116 -0.215370 -0.321274 -2.735748 -3.370352 0.781131 6.314665 1.926003 -0.185139 -0.592308 -0.047600 1.380061 3.331763 0.000000 0.000000 0.000000 2.206041 -0.621360 4.923289 0.571247 0.038869 2.870590 -3.328559 -8.738248 1.189504 0.000000 0.000000 0.000000 0.091215 -0.390187 9.488745 -0.574384 0.262310 0.813267 0.661701 -0.637895 1.480405 0.167492 0.548398 -9.780526 0.000000 0.000000 0.000000 -26.234582 1.439158 -3.326962 -43.538486 -4.976239 -3.299651 -10.050300 -22.055154 2.778996 0.000000 0.000000 0.000000 22.703019 1.249336 -1.872329 49.168471 3.674302 -2.972231 5.375543 23.979372 1.740665 0.000000 0.000000 0.000000 
-0.000385 0.960779 0.009100 -0.047879 -0.173620 -2.417192 -3.272875 0.752893 6.108111 1.610203 -0.135329 -0.911079 0.115220 1.957032 3.942241 0.000000 0.000000 0.000000 2.013518 -0.548048 4.377699 0.704992 0.033297 3.239059 -3.557000 -9.207091 0.906846 0.000000 0.000000 0.000000 0.140661 -0.397836 9.552995 -0.653513 0.299197 0.892932 0.586391 -0.859884 1.159473 0.362439 0.413141 -9.834051 0.000000 0.000000 0.000000 -26.753571 1.650519 -3.487319 -43.261831 -4.838306 -3.312692 -9.700661 -21.944740 2.700331 0.000000 0.000000 0.000000 22.369551 1.292252 -1.863255 49.030792 3.435248 -3.013337 5.411053 23.949674 1.735363 0.000000 0.000000 0.000000 
-0.001568 0.960942 0.013431 0.083073 -0.329156 -2.288480 -3.095484 0.750009 6.154068 1.471644 -0.120371 -0.932434 0.491002 2.556007 3.617119 0.000000 0.000000 0.000000 2.099923 -0.513606 4.043334 0.442806 0.101206 4.113041 -3.796438 -9.511525 -0.061415 0.000000 0.000000 0.000000 0.277495 -0.429997 10.075496 -0.577851 0.263960 0.796142 0.289905 -0.530883 0.788498 0.630525 0.235699 -9.512929 0.000000 0.000000 0.000000 -26.787614 1.766536 -3.689740 -42.952656 -4.575996 -3.312015 -10.031466 -21.903365 2.741706 0.000000 0.000000 0.000000 22.810546 1.044170 -1.970454 48.107513 3.133675 -3.055382 6.098550 23.811477 1.867577 0.000000 0.000000 0.000000 
-0.003766 0.960832 0.019072 0.280567 -0.419855 -2.132413 -3.136199 0.801608 6.545082 1.645208 -0.112521 -1.466910 0.869557 3.378154 3.846836 0.000000 0.000000 0.000000 1.793897 -0.471516 3.814679 0.847095 0.053897 4.414086 -4.238698 -10.550369 -0.224463 0.000000 0.000000 0.000000 0.370704 -0.438766 10.118392 -0.491224 0.209287 1.371023 0.212320 -0.731742 0.101101 0.331744 0.427567 -9.553420 0.000000 0.000000 0.000000 -27.255155 2.096401 -3.905407 -42.607417 -4.117677 -3.404939 -10.218305 -21.492418 2.726519 0.000000 0.000000 0.000000 22.860482 1.432592 -1.849551 47.816784 2.531629 -3.177432 6.173235 23.756835 1.858384 0.000000 0.000000 0.000000 
-0.007410 0.960540 0.025954 0.594052 -0.729531 -2.106986 -3.059491 0.832658 6.822065 1.319333 -0.088261 -1.312234 1.587418 4.747198 3.808255 0.000000 0.000000 0.000000 1.814758 -0.496221 4.027657 0.589545 0.118736 5.137303 -4.615270 -11.275615 -0.971038 0.000000 0.000000 0.000000 0.327051 -0.446245 10.469750 -0.717087 0.320156 1.564925 0.244491 -0.558759 -0.353262 0.103524 0.580735 -9.522863 0.000000 0.000000 0.000000 -27.333796 2.257275 -4.038305 -42.666672 -3.709584 -3.507316 -10.042629 -21.024539 2.627229 0.000000 0.000000 0.000000 22.733709 1.289552 -1.930270 47.559123 2.250931 -3.225507 6.838058 23.366667 1.945893 0.000000 0.000000 0.000000 
-0.012534 0.959507 0.034131 0.770309 -0.753908 -2.324375 -2.773559 0.901976 7.577396 1.342955 -0.091923 -1.289437 1.877052 5.228617 3.561630 0.000000 0.000000 0.000000 2.070792 -0.531229 4.223350 0.632618 0.141561 5.955789 -5.124768 -12.476137 -1.252635 0.000000 0.000000 0.000000 0.439055 -0.476445 10.967434 -0.629347 0.265521 2.180496 -0.027004 -0.610919 -1.010697 0.064769 0.577483 -9.030912 0.000000 0.000000 0.000000 -27.015447 2.577465 -4.223872 -43.163821 -3.720238 -3.487789 -9.768130 -20.125192 2.455082 0.000000 0.000000 0.000000 22.514713 1.400293 -1.865385 48.057064 1.953967 -3.319490 6.932030 23.470534 1.965320 0.000000 0.000000 0.000000 
-0.018836 0.957094 0.043608 0.923295 -0.954379 -2.480629 -2.498203 0.891830 7.651152 1.221071 -0.165234 0.608999 2.501887 5.864052 1.685272 0.000000 0.000000 0.000000 2.434382 -0.615325 4.774916 0.515745 0.182150 6.518678 -5.445615 -13.039805 -2.323102 0.000000 0.000000 0.000000 0.602796 -0.516291 11.603467 -0.974226 0.439707 2.395759 0.413186 -0.989871 -1.388292 -0.803862 1.169708 -9.932007 0.000000 0.000000 0.000000 -27.457232 3.154831 -4.457152 -43.210536 -3.588414 -3.571022 -9.577616 -19.812166 2.400466 0.000000 0.000000 0.000000 22.182212 1.165409 -2.150960 48.283598 2.127374 -3.192139 6.558999 22.720684 1.796401 0.000000 0.000000 0.000000 
